<svg xmlns="http://www.w3.org/2000/svg" xmlns:xlink="http://www.w3.org/1999/xlink" width="310" height="310" viewBox="0 0 310 310">
  <defs>
    <polygon id="a" points="0 0 32 0 32 157 158 157 158 182 0 182"/>
  </defs>
  <g fill="none" fill-rule="evenodd">
    <circle cx="155" cy="155" r="155" fill="#DA0038"/>
    <g transform="translate(71 57)">
      <g transform="translate(0 13)">
        <mask id="b" fill="white">
          <use xlink:href="#a"/>
        </mask>
        <path stroke="#FFFFFF" stroke-width="11" d="M31.5,9.5 L16,9.5 C12.4101491,9.5 9.5,12.4101491 9.5,16 L9.5,168 C9.5,171.589851 12.4101491,174.5 16,174.5 L136,174.5 C139.589851,174.5 142.5,171.589851 142.5,168 L142.5,154.5 L49,154.5 C39.3350169,154.5 31.5,146.664983 31.5,137 L31.5,9.5 Z" mask="url(#b)"/>
      </g>
      <g stroke="#FFFFFF" stroke-width="11" transform="translate(23)">
        <path d="M5.5,11.9933533 L5.5,164.006647 C5.5,167.595866 8.40650354,170.5 11.9988687,170.5 L132.001131,170.5 C135.584482,170.5 138.5,167.586197 138.5,164.001228 L138.5,52.0065973 C138.5,51.7091768 138.358653,51.0931998 138.090874,50.4460018 C137.824155,49.801368 137.491414,49.2695887 137.287496,49.0656703 L94.9343297,6.71250433 C94.7351508,6.51332542 94.201107,6.17960197 93.5532861,5.91136802 C92.9032937,5.64223492 92.2862405,5.5 91.9972215,5.5 L12.0006631,5.5 C8.40631167,5.5 5.5,8.40551092 5.5,11.9933533 Z"/>
        <path d="M89,8 L89,47.99819 C89,50.2083286 90.7940525,52 93.0098932,52 L137,52"/>
      </g>
      <g transform="translate(74 75)">
        <rect width="39" height="24.87" y="19.13" fill="#FFFFFF" rx="2.56"/>
        <path stroke="#FFFFFF" stroke-width="8.96" d="M31.9672131,26.1449275 C31.9672131,21.5831915 31.9672131,17.0131431 31.9672131,12.4347826 C31.9672131,5.56724181 26.3854517,0 19.5,0 C12.6145483,0 7.03278689,5.56724181 7.03278689,12.4347826 C7.03278689,17.0131431 7.03278689,21.5831915 7.03278689,26.1449275"/>
      </g>
    </g>
  </g>
</svg>
