<svg xmlns="http://www.w3.org/2000/svg" xmlns:xlink="http://www.w3.org/1999/xlink" width="310" height="310" viewBox="0 0 310 310">
  <defs>
    <polygon id="a" points="0 0 32 0 32 157 158 157 158 182 0 182"/>
  </defs>
  <g fill="none" fill-rule="evenodd">
    <circle cx="155" cy="155" r="155" fill="#DA0038"/>
    <g transform="translate(71 52)">
      <g transform="translate(0 18)">
        <mask id="b" fill="white">
          <use xlink:href="#a"/>
        </mask>
        <path stroke="#FFFFFF" stroke-width="13" d="M9.5,17.9933533 L9.5,170.006647 C9.5,173.043399 11.9586058,175.5 14.9988687,175.5 L135.001131,175.5 C138.032329,175.5 140.5,173.03378 140.5,170.001228 L140.5,58.0065973 C140.5,57.5110402 139.922226,56.114614 139.580389,55.772777 L97.227223,13.4196111 C96.8919679,13.0843561 95.4806698,12.5 94.9972215,12.5 L15.0006631,12.5 C11.9585347,12.5 9.5,14.9578574 9.5,17.9933533 Z" mask="url(#b)"/>
      </g>
      <g stroke="#FFFFFF" stroke-width="13" transform="translate(29)">
        <path d="M6.5,11.9933533 L6.5,164.006647 C6.5,167.043399 8.95860579,169.5 11.9988687,169.5 L132.001131,169.5 C135.032329,169.5 137.5,167.03378 137.5,164.001228 L137.5,52.0065973 C137.5,51.5110402 136.922226,50.114614 136.580389,49.772777 L94.227223,7.41961112 C93.8919679,7.08435607 92.4806698,6.5 91.9972215,6.5 L12.0006631,6.5 C8.95853475,6.5 6.5,8.95785737 6.5,11.9933533 Z"/>
        <path d="M87,7 L87,52.9928103 C87,55.2059201 88.7942683,57 91.0071897,57 L137,57"/>
      </g>
      <g transform="translate(80 76)">
        <rect width="39" height="24.87" y="19.13" fill="#FFFFFF" rx="2.56"/>
        <path stroke="#FFFFFF" stroke-width="8.96" d="M31.9672131,26.1449275 C31.9672131,21.5831915 31.9672131,17.0131431 31.9672131,12.4347826 C31.9672131,5.56724181 26.3854517,0 19.5,0 C12.6145483,0 7.03278689,5.56724181 7.03278689,12.4347826 C7.03278689,17.0131431 7.03278689,21.5831915 7.03278689,26.1449275"/>
      </g>
    </g>
  </g>
</svg>
